<svg xmlns="http://www.w3.org/2000/svg" version="1.1" xmlns:xlink="http://www.w3.org/1999/xlink" width="1000" height="1000"><g clip-path="url(#SvgjsClipPath1356)"><rect width="1000" height="1000" fill="#ffffff"></rect><g transform="matrix(1.3359718777919725,0,0,1.3359718777919725,99.99999999999994,133.00852517054517)"><svg xmlns="http://www.w3.org/2000/svg" viewBox="2.007 1.578 598.815 549.400" width="598.815" height="549.4"><path fill="#000000" d="M 50.007 165.378 L 259.207 251.478 C 269.007 255.478 279.407 257.578 290.007 257.578 C 300.607 257.578 311.007 255.478 320.807 251.478 L 563.207 151.678 C 572.207 147.978 578.007 139.278 578.007 129.578 C 578.007 119.878 572.207 111.178 563.207 107.478 L 320.807 7.678 C 311.007 3.678 300.607 1.578 290.007 1.578 C 279.407 1.578 269.007 3.678 259.207 7.678 L 16.807 107.478 C 7.807 111.178 2.007 119.878 2.007 129.578 L 2.007 425.578 C 2.007 438.878 12.707 449.578 26.007 449.578 C 39.307 449.578 50.007 438.878 50.007 425.578 L 50.007 165.378 Z" style="stroke-width: 1px;"></path><text style="fill: rgb(0, 0, 0); font-family: &quot;Arial&quot;, sans-serif; font-size: 28px; white-space: pre;" transform="matrix(13.750296, 5.642273, 0, 12.251946, -1785.329102, -5231.190918)" x="128.213" y="277.956" dx="4.82" dy="122.429">F</text><text style="fill: rgb(0, 0, 0); font-family: &quot;Arial&quot;, sans-serif; font-size: 28px; font-weight: 700; white-space: pre;" transform="matrix(14.120003, -5.782435, 0, 12.045059, -1560.004761, -3547.331787)" x="128.213" y="277.956" dx="4.82" dy="122.429">Z</text></svg></g></g><defs><clipPath id="SvgjsClipPath1356"><rect width="1000" height="1000" x="0" y="0" rx="500" ry="500"></rect></clipPath></defs></svg>